<svg width="326" height="293" viewBox="0 0 326 293" fill="none" xmlns="http://www.w3.org/2000/svg">
<mask id="mask0_113_2304" style="mask-type:luminance" maskUnits="userSpaceOnUse" x="74" y="121" width="177" height="172">
<path d="M74.0186 121.078H250.026V293H74.0186V121.078Z" fill="white"/>
</mask>
<g mask="url(#mask0_113_2304)">
<mask id="mask1_113_2304" style="mask-type:luminance" maskUnits="userSpaceOnUse" x="74" y="121" width="176" height="172">
<path d="M202.467 168.088C206.906 182.324 211.585 196.493 215.572 210.853C216.425 213.926 215.788 218.315 214.032 220.965C199.22 243.262 184.012 265.292 168.876 287.38C164.075 294.386 161.103 294.472 156.443 287.713C141.033 265.278 125.57 242.877 110.434 220.262C108.894 217.963 108.497 214.049 109.277 211.347C113.156 197.861 117.634 184.557 121.872 171.157C122.308 169.755 122.563 168.316 121.69 165.908C116.707 170.193 111.611 174.354 106.79 178.795C101.263 183.906 95.0096 186.172 87.594 183.744C75.0876 179.64 70.5215 166.031 79.0749 156.009C94.4309 138.011 114.603 127.214 137.953 121.932C139.238 121.633 141.249 122.07 142.196 122.935C147.198 127.39 152.108 131.941 156.679 136.786C157.694 137.873 157.62 140.419 157.258 142.12C154.393 155.833 151.132 169.489 148.523 183.255C147.993 185.996 148.9 189.63 150.514 191.962C153.888 196.826 158.165 201.091 162.697 206.34C167.518 200.654 172.285 195.491 176.38 189.872C177.523 188.309 177.018 185.274 176.562 183.046C173.717 169.314 170.509 155.676 167.861 141.911C167.444 139.683 168.842 136.786 170.201 134.696C171.471 132.729 174.261 131.713 175.586 129.779C182.128 120.279 190.412 121.666 199.711 125.215C216.823 131.727 232.085 140.771 244.45 154.076C251.9 162.084 251.753 172.914 244.195 180.044C236.961 186.856 226.45 186.224 218.039 178.762C213.414 174.653 208.377 170.948 203.517 167.067C203.046 166.91 202.595 166.768 202.124 166.611C202.232 167.105 202.32 167.594 202.428 168.088" fill="white"/>
</mask>
<g mask="url(#mask1_113_2304)">
<path d="M-8.74976 -8.47412H333.785V301.474H-8.74976V-8.47412Z" fill="#3D348B"/>
</g>
</g>
<mask id="mask2_113_2304" style="mask-type:luminance" maskUnits="userSpaceOnUse" x="28" y="0" width="269" height="103">
<path d="M28.8196 0H296.252V102.486H28.8196V0Z" fill="white"/>
</mask>
<g mask="url(#mask2_113_2304)">
<mask id="mask3_113_2304" style="mask-type:luminance" maskUnits="userSpaceOnUse" x="29" y="0" width="267" height="102">
<path d="M63.8521 101.778C54.2245 93.0189 42.3704 90.2069 29.5892 89.9599C45.8133 42.7732 94.3041 3.60465 153.271 0.531392C217.691 -2.84112 273.181 32.309 295.658 89.9789C282.642 90.2259 270.586 92.9476 260.871 101.973C241.62 60.5573 209.462 37.4532 162.732 36.3655C129.994 35.6102 86.0351 51.67 63.8324 101.759" fill="white"/>
</mask>
<g mask="url(#mask3_113_2304)">
<path d="M-8.74951 -8.47412H333.786V301.474H-8.74951V-8.47412Z" fill="#E6AF2E"/>
</g>
</g>
<mask id="mask4_113_2304" style="mask-type:luminance" maskUnits="userSpaceOnUse" x="195" y="170" width="123" height="103">
<path d="M195.807 170.714H317.532V272.416H195.807V170.714Z" fill="white"/>
</mask>
<g mask="url(#mask4_113_2304)">
<mask id="mask5_113_2304" style="mask-type:luminance" maskUnits="userSpaceOnUse" x="195" y="171" width="123" height="101">
<path d="M195.813 270.681C206.254 255.424 216.514 240.048 227.353 225.052C228.913 222.896 233.136 222.155 236.294 221.509C241.008 220.54 244.107 218.626 246.206 214.028C251.881 201.649 258.026 189.465 264.461 177.443C265.604 175.301 268.973 174.142 271.494 172.878C272.602 172.313 274.27 172.945 275.501 172.508C287.973 168.1 295.08 173.947 300.931 183.955C309.872 199.212 316.233 215.168 317.336 232.776C318.062 244.328 311.392 252.232 300.862 253.001C290.675 253.757 282.46 246.541 280.758 235.64C279.724 228.985 278.292 222.383 276.825 214.574C249.541 234.182 223.332 253.02 197.102 271.859C196.686 271.469 196.269 271.085 195.852 270.7" fill="white"/>
</mask>
<g mask="url(#mask5_113_2304)">
<path d="M-8.74896 -8.47656H333.786V301.471H-8.74896V-8.47656Z" fill="#E6AF2E"/>
</g>
</g>
<mask id="mask6_113_2304" style="mask-type:luminance" maskUnits="userSpaceOnUse" x="6" y="170" width="125" height="104">
<path d="M6.25281 170.714H130.013V273.628H6.25281V170.714Z" fill="white"/>
</mask>
<g mask="url(#mask6_113_2304)">
<mask id="mask7_113_2304" style="mask-type:luminance" maskUnits="userSpaceOnUse" x="7" y="171" width="123" height="103">
<path d="M129.525 273.157C102.933 253.953 76.3403 234.744 48.3356 214.523C46.7024 222.403 45.0153 228.849 44.1129 235.394C42.6268 246.229 34.7404 253.16 23.9701 252.495C14.0581 251.882 6.5346 243.346 7.45664 232.867C9.41354 210.713 17.5011 190.801 32.2391 173.635C33.4162 172.262 35.991 171.317 37.8743 171.388C43.7303 171.559 49.6599 171.949 55.3834 173.07C57.4874 173.473 59.8269 175.791 60.8764 177.81C67.0071 189.505 73.0249 201.247 78.5179 213.221C80.7642 218.138 83.6824 221.087 89.249 221.472C94.5605 221.843 98.0378 224.545 100.922 228.953C109.259 241.717 118.107 254.162 126.626 266.821C127.892 268.697 128.49 270.982 129.397 273.072L129.525 273.157Z" fill="white"/>
</mask>
<g mask="url(#mask7_113_2304)">
<path d="M-8.74805 -8.47607H333.787V301.472H-8.74805V-8.47607Z" fill="#E6AF2E"/>
</g>
</g>
<mask id="mask8_113_2304" style="mask-type:luminance" maskUnits="userSpaceOnUse" x="129" y="54" width="67" height="66">
<path d="M129.263 54.4819H195.807V119.51H129.263V54.4819Z" fill="white"/>
</mask>
<g mask="url(#mask8_113_2304)">
<mask id="mask9_113_2304" style="mask-type:luminance" maskUnits="userSpaceOnUse" x="129" y="54" width="67" height="65">
<path d="M129.615 86.7309C129.703 69.2462 144.858 54.3929 162.294 54.6779C180.857 54.9724 195.414 69.2984 195.213 87.0682C195.017 104.325 180.171 118.86 162.931 118.665C144.226 118.456 129.522 104.377 129.615 86.7167" fill="white"/>
</mask>
<g mask="url(#mask9_113_2304)">
<path d="M-8.75037 -8.47412H333.785V301.474H-8.75037V-8.47412Z" fill="#3D348B"/>
</g>
</g>
<mask id="mask10_113_2304" style="mask-type:luminance" maskUnits="userSpaceOnUse" x="258" y="102" width="68" height="65">
<path d="M258.775 102.485H325.03V166.934H258.775V102.485Z" fill="white"/>
</mask>
<g mask="url(#mask10_113_2304)">
<mask id="mask11_113_2304" style="mask-type:luminance" maskUnits="userSpaceOnUse" x="258" y="102" width="67" height="65">
<path d="M291.468 102.813C309.958 102.78 324.48 116.331 324.75 133.907C325.02 151.391 310.395 166.102 292.611 166.188C274.101 166.297 258.932 152.109 258.878 134.624C258.804 117.101 273.415 102.832 291.468 102.794" fill="white"/>
</mask>
<g mask="url(#mask11_113_2304)">
<path d="M-8.75085 -8.47559H333.784V301.472H-8.75085V-8.47559Z" fill="#3D348B"/>
</g>
</g>
<mask id="mask12_113_2304" style="mask-type:luminance" maskUnits="userSpaceOnUse" x="0" y="102" width="67" height="65">
<path d="M0 102.485H66.2598V166.934H0V102.485Z" fill="white"/>
</mask>
<g mask="url(#mask12_113_2304)">
<mask id="mask13_113_2304" style="mask-type:luminance" maskUnits="userSpaceOnUse" x="0" y="102" width="66" height="65">
<path d="M0.31218 134.135C0.385748 116.612 14.9031 102.794 33.2851 102.78C51.3386 102.761 65.8755 117.016 65.7872 134.624C65.699 152.46 51.3582 166.349 33.138 166.207C14.1625 166.083 0.238612 152.479 0.31218 134.135Z" fill="white"/>
</mask>
<g mask="url(#mask13_113_2304)">
<path d="M-8.75067 -8.4751H333.784V301.473H-8.75067V-8.4751Z" fill="#3D348B"/>
</g>
</g>
</svg>
